<svg width="545" height="589" viewBox="0 0 545 589" fill="none" xmlns="http://www.w3.org/2000/svg">
<path d="M444.5 303.464C463 429.037 481 531.037 245 531.037C114.313 531.037 43.4015 338.037 53.6768 318.537C63.9521 299.037 116.452 305.891 96.952 303.464C77.452 301.037 42.452 322.037 51.452 284.537C60.452 247.037 121.16 94.6945 222.5 52.0366C301.194 18.911 403.548 -1.46346 481 36.5365C649 118.962 426 177.891 444.5 303.464Z" fill="url(#paint0_linear_108_3)"/>
<path d="M192.381 131.331C196.199 131.331 200.164 132.138 204.276 133.754C208.388 135.369 212.353 137.499 216.171 140.142H215.951C219.769 142.785 222.706 146.383 224.762 150.936C226.818 155.488 227.846 160.702 227.846 166.576V196.755C227.846 208.65 223.881 217.535 215.951 223.409C212.133 226.199 208.167 228.402 204.056 230.017C200.09 231.486 196.199 232.22 192.381 232.22H144.359C140.541 232.22 136.576 231.486 132.464 230.017C128.499 228.402 124.607 226.199 120.789 223.409C112.858 217.535 108.893 208.65 108.893 196.755V182.216C108.893 175.314 113.226 171.863 121.89 171.863C130.701 171.863 135.107 175.314 135.107 182.216V194.992C135.107 198.811 136.208 202.262 138.411 205.346C140.614 208.43 144.432 209.972 149.866 209.972H186.873C192.307 209.972 196.125 208.43 198.328 205.346C200.531 202.262 201.632 198.811 201.632 194.992V168.338C201.632 164.667 200.531 161.289 198.328 158.205C196.125 154.974 192.307 153.359 186.873 153.359H144.359C136.722 153.359 128.866 150.569 120.789 144.988C112.858 138.82 108.893 129.936 108.893 118.334V92.1204C108.893 86.2462 109.921 81.1063 111.977 76.7006C114.033 72.1481 116.97 68.4767 120.789 65.6865H120.568C124.387 63.1899 128.352 61.134 132.464 59.5186C136.576 57.9031 140.541 57.0954 144.359 57.0954H192.381C196.199 57.0954 200.164 57.9031 204.276 59.5186C208.388 61.134 212.353 63.1899 216.171 65.6865H215.951C219.769 68.4767 222.706 72.1481 224.762 76.7006C226.818 81.1063 227.846 86.2462 227.846 92.1204V105.117C227.846 112.019 223.44 115.47 214.629 115.47C205.965 115.47 201.632 112.019 201.632 105.117V94.103C201.632 90.4316 200.531 87.0539 198.328 83.9699C196.125 80.886 192.307 79.344 186.873 79.344H149.866C144.432 79.344 140.614 80.886 138.411 83.9699C136.208 87.0539 135.107 90.4316 135.107 94.103V116.572C135.107 120.39 136.208 123.841 138.411 126.925C140.614 129.862 144.432 131.331 149.866 131.331H192.381Z" fill="white"/>
<circle cx="334" cy="159" r="125" fill="url(#paint1_radial_108_3)"/>
<path d="M446.259 52.7279C452.457 59.6677 455.183 69.2254 454.694 80.6888C454.204 92.1587 450.494 105.469 443.9 119.783C430.713 148.407 406.073 180.866 373.082 210.331C340.09 239.796 305.064 260.625 275.137 270.506C260.172 275.448 246.529 277.636 235.077 276.831C223.631 276.027 214.441 272.242 208.243 265.303C202.045 258.363 199.319 248.805 199.808 237.342C200.298 225.872 204.008 212.562 210.602 198.248C223.789 169.624 248.428 137.165 281.42 107.699C314.412 78.2341 349.438 57.4052 379.365 47.5241C394.33 42.583 407.973 40.395 419.425 41.1994C430.871 42.0035 440.061 45.7881 446.259 52.7279Z" stroke="url(#paint2_linear_108_3)" stroke-width="2"/>
<path d="M413 144C349 179.5 299 159 310 198.5C240.964 198.5 209 228.036 209 159C209 89.9644 264.964 34 334 34C403.036 34 426 74 413 144Z" fill="url(#paint3_radial_108_3)"/>
<circle cx="440.5" cy="45.5" r="11.5" fill="url(#paint4_diamond_108_3)"/>
<path d="M310.424 167.237C307.927 167.237 305.945 166.282 304.476 164.373C303.155 162.317 302.494 159.6 302.494 156.223C302.494 148.733 305.578 144.988 311.746 144.988H335.096C340.529 144.988 344.348 143.446 346.55 140.362C348.9 137.278 350.075 133.901 350.075 130.229V94.103C350.075 90.4316 348.9 87.0539 346.55 83.9699C344.348 80.886 340.529 79.344 335.096 79.344H288.836V223.189C288.836 230.238 284.431 233.762 275.619 233.762C267.102 233.762 262.843 230.238 262.843 223.189V70.3124C262.843 65.0256 264.165 61.5011 266.808 59.7388C269.451 57.9766 272.682 57.0954 276.5 57.0954H340.823C344.494 57.0954 348.386 57.9031 352.498 59.5186C356.61 61.134 360.575 63.1899 364.393 65.6865H364.173C367.991 68.4767 370.928 72.1481 372.984 76.7006C375.04 81.1063 376.068 86.2462 376.068 92.1204V131.992C376.068 143.887 372.103 152.772 364.173 158.646C360.355 161.436 356.463 163.565 352.498 165.034C348.533 166.503 344.641 167.237 340.823 167.237H310.424Z" fill="white"/>
<path d="M467.557 78.6832L419.315 226.713V226.493C418.434 228.696 417.186 230.531 415.57 232C414.102 233.322 412.266 233.983 410.063 233.983C408.888 233.983 407.714 233.836 406.539 233.542C405.511 233.395 404.409 233.175 403.234 232.881H403.455C395.084 230.238 392 225.538 394.203 218.783L444.427 66.127C445.162 63.7774 446.41 61.7948 448.172 60.1794C450.081 58.564 452.284 57.6094 454.781 57.3157C457.277 56.8752 459.7 56.5814 462.05 56.4346C464.4 56.1409 466.235 55.994 467.557 55.994C468.879 55.994 470.714 56.1409 473.064 56.4346C475.414 56.5814 477.837 56.8017 480.333 57.0954C482.389 57.3892 484.372 58.4906 486.281 60.3997C488.337 62.3088 489.879 64.2179 490.907 66.127C499.131 91.3861 507.428 116.866 515.799 142.565C524.317 168.118 532.687 193.524 540.911 218.783C542.967 225.538 539.883 230.238 531.659 232.881C530.484 233.175 529.383 233.395 528.355 233.542C527.474 233.836 526.446 233.983 525.271 233.983C523.215 233.983 521.306 233.322 519.544 232C517.928 230.531 516.754 228.696 516.019 226.493V226.713L467.557 78.6832ZM484.078 179.132C484.078 183.831 482.389 187.87 479.012 191.248C475.781 194.478 471.816 196.094 467.116 196.094C462.417 196.094 458.452 194.478 455.221 191.248C451.99 187.87 450.375 183.831 450.375 179.132C450.375 174.433 451.99 170.468 455.221 167.237C458.452 163.859 462.417 162.17 467.116 162.17C471.816 162.17 475.781 163.859 479.012 167.237C482.389 170.468 484.078 174.433 484.078 179.132Z" fill="white"/>
<path d="M220.355 412.755C220.355 424.65 216.39 433.535 208.46 439.409C204.642 442.199 200.676 444.402 196.565 446.017C192.599 447.486 188.708 448.22 184.89 448.22H136.868C133.05 448.22 129.085 447.486 124.973 446.017C121.008 444.402 117.116 442.199 113.298 439.409C109.479 436.472 106.542 432.874 104.486 428.615C102.43 424.209 101.402 418.923 101.402 412.755V308.12C101.402 302.246 102.43 297.106 104.486 292.701C106.542 288.148 109.479 284.477 113.298 281.686H113.077C116.896 279.19 120.861 277.134 124.973 275.519C129.085 273.903 133.05 273.095 136.868 273.095H184.89C188.708 273.095 192.673 273.903 196.785 275.519C200.897 277.134 204.862 279.19 208.68 281.686H208.46C212.278 284.477 215.215 288.148 217.271 292.701C219.327 297.106 220.355 302.246 220.355 308.12V323.32C220.355 330.369 215.949 333.894 207.138 333.894C198.474 333.894 194.141 330.369 194.141 323.32V310.103C194.141 306.432 193.04 303.054 190.837 299.97C188.634 296.886 184.816 295.344 179.382 295.344H142.375C136.941 295.344 133.123 296.886 130.92 299.97C128.717 303.054 127.616 306.432 127.616 310.103V410.992C127.616 414.811 128.717 418.262 130.92 421.346C133.123 424.43 136.941 425.972 142.375 425.972H179.382C184.816 425.972 188.634 424.43 190.837 421.346C193.04 418.262 194.141 414.811 194.141 410.992V398.216C194.141 391.314 198.474 387.863 207.138 387.863C215.949 387.863 220.355 391.314 220.355 398.216V412.755Z" fill="white"/>
<path d="M266.721 448.22C261.287 448.22 257.616 446.825 255.707 444.035C253.797 441.245 252.843 438.161 252.843 434.783V286.312C252.843 282.935 253.797 279.924 255.707 277.281C257.616 274.491 261.287 273.095 266.721 273.095H343.379C348.813 273.095 351.676 276.767 351.97 284.11C352.264 291.599 349.4 295.344 343.379 295.344H278.836V425.972H347.344C352.778 425.972 355.568 429.57 355.715 436.766C356.009 444.402 353.218 448.22 347.344 448.22H266.721ZM335.229 357.023C335.229 362.163 333.393 366.495 329.722 370.02C326.197 373.544 321.865 375.307 316.725 375.307C311.732 375.307 307.473 373.544 303.949 370.02C300.424 366.495 298.662 362.163 298.662 357.023C298.662 351.883 300.424 347.551 303.949 344.027C307.473 340.502 311.732 338.74 316.725 338.74C321.865 338.74 326.197 340.502 329.722 344.027C333.393 347.551 335.229 351.883 335.229 357.023Z" fill="white"/>
<defs>
<linearGradient id="paint0_linear_108_3" x1="50" y1="274" x2="544" y2="274" gradientUnits="userSpaceOnUse">
<stop stop-color="#294A7B"/>
<stop offset="1" stop-color="#2D2F55"/>
</linearGradient>
<radialGradient id="paint1_radial_108_3" cx="0" cy="0" r="1" gradientUnits="userSpaceOnUse" gradientTransform="translate(423.5 245) rotate(-138.705) scale(246.234)">
<stop stop-color="#F03CAF"/>
<stop offset="1" stop-color="#257CC0"/>
</radialGradient>
<linearGradient id="paint2_linear_108_3" x1="440.184" y1="49.5688" x2="209.069" y2="270.441" gradientUnits="userSpaceOnUse">
<stop stop-color="#07D1DF"/>
<stop offset="1" stop-color="#1BFFAD" stop-opacity="0.27"/>
</linearGradient>
<radialGradient id="paint3_radial_108_3" cx="0" cy="0" r="1" gradientUnits="userSpaceOnUse" gradientTransform="translate(423.5 245) rotate(-138.705) scale(246.234 246.234)">
<stop stop-color="#F03CAF"/>
<stop offset="1" stop-color="#257CC0"/>
</radialGradient>
<radialGradient id="paint4_diamond_108_3" cx="0" cy="0" r="1" gradientUnits="userSpaceOnUse" gradientTransform="translate(444.5 34) rotate(101.07) scale(23.4361)">
<stop stop-color="#2DB5E7"/>
<stop offset="1" stop-color="#34E5D3"/>
</radialGradient>
</defs>
</svg>
